<svg xmlns="http://www.w3.org/2000/svg" version="1.1" viewBox="0 0 512 512" fill="currentColor"><path fill="currentColor" d="M224 52h-64a36 36 0 0 0-32 19.54A36 36 0 0 0 96 52H32a12 12 0 0 0-12 12v128a12 12 0 0 0 12 12h64a28 28 0 0 1 28 28a4 4 0 0 0 8 0a28 28 0 0 1 28-28h64a12 12 0 0 0 12-12V64a12 12 0 0 0-12-12M96 196H32a4 4 0 0 1-4-4V64a4 4 0 0 1 4-4h64a28 28 0 0 1 28 28v121.4A35.93 35.93 0 0 0 96 196m132-4a4 4 0 0 1-4 4h-64a35.94 35.94 0 0 0-28 13.41V88a28 28 0 0 1 28-28h64a4 4 0 0 1 4 4Z"/></svg>