<svg xmlns="http://www.w3.org/2000/svg" version="1.1" viewBox="0 0 512 512" fill="currentColor"><g fill="currentColor"><path d="M224 48v160a16 16 0 0 1-16 16H48a16 16 0 0 1-16-16V48a16 16 0 0 1 16-16h160a16 16 0 0 1 16 16" opacity=".2"/><path d="M72 60a12 12 0 1 1-12-12a12 12 0 0 1 12 12m56-12a12 12 0 1 0 12 12a12 12 0 0 0-12-12m68 24a12 12 0 1 0-12-12a12 12 0 0 0 12 12M60 116a12 12 0 1 0 12 12a12 12 0 0 0-12-12m68 0a12 12 0 1 0 12 12a12 12 0 0 0-12-12m68 0a12 12 0 1 0 12 12a12 12 0 0 0-12-12M60 184a12 12 0 1 0 12 12a12 12 0 0 0-12-12m68 0a12 12 0 1 0 12 12a12 12 0 0 0-12-12m68 0a12 12 0 1 0 12 12a12 12 0 0 0-12-12"/></g></svg>