<svg xmlns="http://www.w3.org/2000/svg" version="1.1" viewBox="0 0 512 512" fill="currentColor"><path fill="currentColor" d="M70 60a10 10 0 1 1-10-10a10 10 0 0 1 10 10m58-10a10 10 0 1 0 10 10a10 10 0 0 0-10-10m68 20a10 10 0 1 0-10-10a10 10 0 0 0 10 10M60 118a10 10 0 1 0 10 10a10 10 0 0 0-10-10m68 0a10 10 0 1 0 10 10a10 10 0 0 0-10-10m68 0a10 10 0 1 0 10 10a10 10 0 0 0-10-10M60 186a10 10 0 1 0 10 10a10 10 0 0 0-10-10m68 0a10 10 0 1 0 10 10a10 10 0 0 0-10-10m68 0a10 10 0 1 0 10 10a10 10 0 0 0-10-10"/></svg>