<svg xmlns="http://www.w3.org/2000/svg" version="1.1" viewBox="0 0 512 512" fill="currentColor"><path fill="currentColor" d="M76 96a4 4 0 0 1-4 4H24a4 4 0 0 1 0-8h48a4 4 0 0 1 4 4m-4 28H24a4 4 0 0 0 0 8h48a4 4 0 0 0 0-8m0 32H24a4 4 0 0 0 0 8h48a4 4 0 0 0 0-8m0 32H24a4 4 0 0 0 0 8h48a4 4 0 0 0 0-8m80-64h-48a4 4 0 0 0 0 8h48a4 4 0 0 0 0-8m0 32h-48a4 4 0 0 0 0 8h48a4 4 0 0 0 0-8m0 32h-48a4 4 0 0 0 0 8h48a4 4 0 0 0 0-8m80-96h-48a4 4 0 0 0 0 8h48a4 4 0 0 0 0-8m-48-24h48a4 4 0 0 0 0-8h-48a4 4 0 0 0 0 8m48 56h-48a4 4 0 0 0 0 8h48a4 4 0 0 0 0-8m0 32h-48a4 4 0 0 0 0 8h48a4 4 0 0 0 0-8m0 32h-48a4 4 0 0 0 0 8h48a4 4 0 0 0 0-8"/></svg>