<svg xmlns="http://www.w3.org/2000/svg" version="1.1" viewBox="0 0 512 512" fill="currentColor"><path fill="currentColor" d="M120 64a12 12 0 0 1-12 12H40a12 12 0 0 1 0-24h68a12 12 0 0 1 12 12m-12 28H40a12 12 0 0 0 0 24h68a12 12 0 0 0 0-24m0 40H40a12 12 0 0 0 0 24h68a12 12 0 0 0 0-24m0 40H40a12 12 0 0 0 0 24h68a12 12 0 0 0 0-24m40-96h68a12 12 0 0 0 0-24h-68a12 12 0 0 0 0 24m68 16h-68a12 12 0 0 0 0 24h68a12 12 0 0 0 0-24m0 40h-68a12 12 0 0 0 0 24h68a12 12 0 0 0 0-24m0 40h-68a12 12 0 0 0 0 24h68a12 12 0 0 0 0-24"/></svg>