<svg xmlns="http://www.w3.org/2000/svg" version="1.1" viewBox="0 0 512 512" fill="currentColor"><g fill="none"><path fill-rule="evenodd" clip-rule="evenodd" d="M4 6a1 1 0 0 1 1-1h14a1 1 0 1 1 0 2H5a1 1 0 0 1-1-1zm0 4a1 1 0 0 1 1-1h14a1 1 0 1 1 0 2H5a1 1 0 0 1-1-1zm0 4a1 1 0 0 1 1-1h5a1 1 0 1 1 0 2H5a1 1 0 0 1-1-1zm0 4a1 1 0 0 1 1-1h5a1 1 0 1 1 0 2H5a1 1 0 0 1-1-1zm15-2.5a3.5 3.5 0 0 1-.42 1.665l1.127 1.128a1 1 0 0 1-1.414 1.414l-1.128-1.128A3.5 3.5 0 1 1 19 15.5z" fill="currentColor"/></g></svg>