<svg xmlns="http://www.w3.org/2000/svg" version="1.1" viewBox="0 0 512 512" fill="currentColor"><path fill="currentColor" d="M11.5 19a1 1 0 1 0 1 1a1 1 0 0 0-1-1m0-4a1 1 0 1 0 1 1a1 1 0 0 0-1-1m0-4a1 1 0 1 0 1 1a1 1 0 0 0-1-1m-8-8a1 1 0 0 0-1 1v16a1 1 0 0 0 2 0V4a1 1 0 0 0-1-1m16 2a1 1 0 1 0-1-1a1 1 0 0 0 1 1m-8 2a1 1 0 1 0 1 1a1 1 0 0 0-1-1m-4 4a1 1 0 1 0 1 1a1 1 0 0 0-1-1m0 8a1 1 0 1 0 1 1a1 1 0 0 0-1-1m0-16a1 1 0 1 0 1 1a1 1 0 0 0-1-1m12 8a1 1 0 1 0 1 1a1 1 0 0 0-1-1m0 4a1 1 0 1 0 1 1a1 1 0 0 0-1-1m-8-12a1 1 0 1 0 1 1a1 1 0 0 0-1-1m8 16a1 1 0 1 0 1 1a1 1 0 0 0-1-1m0-12a1 1 0 1 0 1 1a1 1 0 0 0-1-1m-4-4a1 1 0 1 0 1 1a1 1 0 0 0-1-1m0 16a1 1 0 1 0 1 1a1 1 0 0 0-1-1m0-8a1 1 0 1 0 1 1a1 1 0 0 0-1-1"/></svg>