<svg xmlns="http://www.w3.org/2000/svg" version="1.1" viewBox="0 0 512 512" fill="currentColor"><path fill="currentColor" d="M32 480a32 32 0 1 1 0-64a32 32 0 1 1 0 64m96-64a32 32 0 1 1 0 64a32 32 0 1 1 0-64m0-384a32 32 0 1 1 0 64a32 32 0 1 1 0-64m0 256a32 32 0 1 1 0-64a32 32 0 1 1 0 64m192 128a32 32 0 1 1 0 64a32 32 0 1 1 0-64m0-320a32 32 0 1 1 0-64a32 32 0 1 1 0 64m0 128a32 32 0 1 1 0 64a32 32 0 1 1 0-64m-96 256a32 32 0 1 1 0-64a32 32 0 1 1 0 64m0-448a32 32 0 1 1 0 64a32 32 0 1 1 0-64m0 256a32 32 0 1 1 0-64a32 32 0 1 1 0 64m192 128a32 32 0 1 1 0 64a32 32 0 1 1 0-64m0-384a32 32 0 1 1 0 64a32 32 0 1 1 0-64M32 96a32 32 0 1 1 0-64a32 32 0 1 1 0 64m384 128a32 32 0 1 1 0 64a32 32 0 1 1 0-64M32 288a32 32 0 1 1 0-64a32 32 0 1 1 0 64m192 32a32 32 0 1 1 0 64a32 32 0 1 1 0-64m192 64a32 32 0 1 1 0-64a32 32 0 1 1 0 64M32 320a32 32 0 1 1 0 64a32 32 0 1 1 0-64m384-128a32 32 0 1 1 0-64a32 32 0 1 1 0 64M32 128a32 32 0 1 1 0 64a32 32 0 1 1 0-64m192 64a32 32 0 1 1 0-64a32 32 0 1 1 0 64"/></svg>