<svg xmlns="http://www.w3.org/2000/svg" version="1.1" viewBox="0 0 512 512" fill="currentColor"><path fill="currentColor" d="M4.538 20.154q-.44 0-.739-.3q-.299-.298-.299-.739V8.192q0-.44.299-.74q.3-.298.74-.298H7.5V4.192q0-.44.299-.74q.3-.298.74-.298h6.923q.44 0 .739.299t.299.74v6.96h2.962q.44 0 .739.3q.299.299.299.74v6.922q0 .44-.299.74q-.3.299-.74.299H13.5v-4h-3v4zm-.038-1h3v-3h-3zm0-4h3v-3h-3zm0-4h3v-3h-3zm4 4h3v-3h-3zm0-4h3v-3h-3zm0-4h3v-3h-3zm4 8h3v-3h-3zm0-4h3v-3h-3zm0-4h3v-3h-3zm4 12h3v-3h-3zm0-4h3v-3h-3z"/></svg>