<svg xmlns="http://www.w3.org/2000/svg" version="1.1" viewBox="0 0 512 512" fill="currentColor"><path fill="currentColor" d="M6 19.23q-.508 0-.87-.36q-.36-.362-.36-.87t.36-.87q.362-.36.87-.36t.87.36q.36.362.36.87t-.36.87q-.362.36-.87.36m6 0q-.508 0-.87-.36q-.36-.362-.36-.87t.36-.87q.362-.36.87-.36t.87.36q.36.362.36.87t-.36.87q-.362.36-.87.36m6 0q-.508 0-.87-.36q-.36-.362-.36-.87t.36-.87q.362-.36.87-.36t.87.36q.36.362.36.87t-.36.87q-.362.36-.87.36m-12-6q-.508 0-.87-.36q-.36-.362-.36-.87t.36-.87q.362-.36.87-.36t.87.36q.36.362.36.87t-.36.87q-.362.36-.87.36m6 0q-.508 0-.87-.36q-.36-.362-.36-.87t.36-.87q.362-.36.87-.36t.87.36q.36.362.36.87t-.36.87q-.362.36-.87.36m6 0q-.508 0-.87-.36q-.36-.362-.36-.87t.36-.87q.362-.36.87-.36t.87.36q.36.362.36.87t-.36.87q-.362.36-.87.36m-12-6q-.508 0-.87-.36q-.36-.362-.36-.87t.36-.87q.362-.36.87-.36t.87.36q.36.362.36.87t-.36.87q-.362.36-.87.36m6 0q-.508 0-.87-.36q-.36-.362-.36-.87t.36-.87q.362-.36.87-.36t.87.36q.36.362.36.87t-.36.87q-.362.36-.87.36m6 0q-.508 0-.87-.36q-.36-.362-.36-.87t.36-.87q.362-.36.87-.36t.87.36q.36.362.36.87t-.36.87q-.362.36-.87.36"/></svg>