<svg xmlns="http://www.w3.org/2000/svg" version="1.1" viewBox="0 0 512 512" fill="currentColor"><path fill="currentColor" d="M4 20v-1h16v1zm0-3.692v-1.231h1.23v1.23zm0-3.693v-1.23h1.23v1.23zm0-3.692v-1.23h1.23v1.23zm0-3.692V4h1.23v1.23zm3.692 7.384v-1.23h1.231v1.23zm0-7.384V4h1.231v1.23zm3.693 11.077v-1.231h1.23v1.23zm0-3.693v-1.23h1.23v1.23zm0-3.692v-1.23h1.23v1.23zm0-3.692V4h1.23v1.23zm3.692 7.384v-1.23h1.23v1.23zm0-7.384V4h1.23v1.23zm3.692 11.077v-1.231H20v1.23zm0-3.693v-1.23H20v1.23zm0-3.692v-1.23H20v1.23zm0-3.692V4H20v1.23z"/></svg>