<svg xmlns="http://www.w3.org/2000/svg" version="1.1" viewBox="0 0 512 512" fill="currentColor"><path fill="currentColor" d="M11.058 17q-.213 0-.357-.144q-.143-.144-.143-.357q0-.212.143-.356q.144-.143.357-.143h1.865q.213 0 .356.144t.144.357q0 .212-.144.356q-.143.143-.356.143zm-3.75-4.5q-.213 0-.357-.144q-.143-.144-.143-.357t.143-.356q.144-.143.357-.143h9.365q.213 0 .356.144q.144.144.144.357t-.144.356q-.143.143-.356.143zM4.5 8q-.213 0-.356-.144T4 7.499q0-.212.144-.356Q4.288 7 4.5 7h15q.213 0 .356.144q.144.144.144.357q0 .212-.144.356Q19.713 8 19.5 8z"/></svg>