<svg xmlns="http://www.w3.org/2000/svg" version="1.1" viewBox="0 0 512 512" fill="currentColor"><path fill="currentColor" d="M6 19.615q-.69 0-1.153-.462q-.462-.463-.462-1.153t.462-1.153q.463-.462 1.153-.462t1.153.462q.462.463.462 1.153t-.462 1.153q-.463.462-1.153.462m8 0q-.69 0-1.153-.462q-.462-.463-.462-1.153t.462-1.153q.463-.462 1.153-.462t1.153.462q.462.463.462 1.153t-.462 1.153q-.463.462-1.153.462m-4-4q-.69 0-1.153-.462q-.462-.463-.462-1.153t.462-1.153q.463-.462 1.153-.462t1.153.462q.462.463.462 1.153t-.462 1.153q-.463.462-1.153.462m8 0q-.69 0-1.153-.462q-.462-.463-.462-1.153t.462-1.153q.463-.462 1.153-.462t1.153.462q.462.463.462 1.153t-.462 1.153q-.463.462-1.153.462m-12-4q-.69 0-1.153-.462q-.462-.463-.462-1.153t.462-1.153Q5.31 8.385 6 8.385t1.153.462q.462.463.462 1.153t-.462 1.153q-.463.462-1.153.462m8 0q-.69 0-1.153-.462q-.462-.463-.462-1.153t.462-1.153q.463-.462 1.153-.462t1.153.462q.462.463.462 1.153t-.462 1.153q-.463.462-1.153.462m-4-4q-.69 0-1.153-.462Q8.385 6.69 8.385 6t.462-1.153Q9.31 4.385 10 4.385t1.153.462q.462.463.462 1.153t-.462 1.153q-.463.462-1.153.462m8 0q-.69 0-1.153-.462q-.462-.463-.462-1.153t.462-1.153q.463-.462 1.153-.462t1.153.462q.462.463.462 1.153t-.462 1.153q-.463.462-1.153.462"/></svg>