<svg xmlns="http://www.w3.org/2000/svg" version="1.1" viewBox="0 0 512 512" fill="currentColor"><path fill="currentColor" d="M15.848 17.154q.546 0 .926-.382t.38-.928q0-.546-.382-.926t-.928-.38q-.546 0-.926.383q-.38.382-.38.927q0 .546.383.926q.382.38.927.38m-3.846-3.846q.546 0 .926-.382t.38-.928q0-.546-.382-.926t-.928-.38q-.546 0-.926.382t-.38.928q0 .546.382.926t.928.38M8.156 9.462q.546 0 .926-.383q.38-.382.38-.927q0-.546-.383-.926q-.382-.38-.927-.38q-.546 0-.926.382t-.38.928q0 .546.382.926t.928.38M4 20V4h16v16z"/></svg>