<svg xmlns="http://www.w3.org/2000/svg" version="1.1" viewBox="0 0 512 512" fill="currentColor"><path fill="currentColor" d="M8 23.77q-.31 0-.54-.23q-.23-.23-.23-.54q0-.31.23-.54q.23-.23.54-.23q.31 0 .54.23q.23.23.23.54q0 .31-.23.54q-.23.23-.54.23m4 0q-.31 0-.54-.23q-.23-.23-.23-.54q0-.31.23-.54q.23-.23.54-.23q.31 0 .54.23q.23.23.23.54q0 .31-.23.54q-.23.23-.54.23m4 0q-.31 0-.54-.23q-.23-.23-.23-.54q0-.31.23-.54q.23-.23.54-.23q.31 0 .54.23q.23.23.23.54q0 .31-.23.54q-.23.23-.54.23M6.808 19V1h10.384v18zm1-3.5h8.384v-11H7.808z"/></svg>