<svg xmlns="http://www.w3.org/2000/svg" version="1.1" viewBox="0 0 512 512" fill="currentColor"><path fill="currentColor" d="M2 18V6h20v12zm3.5-1h13V7h-13zm7.75-4.365q-.275 0-.455-.18t-.18-.455t.18-.455q.18-.18.455-.18t.455.18q.18.18.18.455t-.18.455q-.18.18-.455.18m-5 0q-.275 0-.455-.18T7.615 12t.18-.455q.18-.18.455-.18t.455.18q.18.18.18.455t-.18.455q-.18.18-.455.18m7.5 0q-.275 0-.455-.18t-.18-.455t.18-.455q.18-.18.455-.18t.455.18q.18.18.18.455t-.18.455q-.18.18-.455.18m-5 0q-.275 0-.455-.18t-.18-.455t.18-.455q.18-.18.455-.18t.455.18q.18.18.18.455t-.18.455q-.18.18-.455.18"/></svg>