<svg xmlns="http://www.w3.org/2000/svg" version="1.1" viewBox="0 0 512 512" fill="currentColor"><path fill="currentColor" d="M6.003 14.827q-.33 0-.58-.25q-.25-.248-.25-.58q0-.349.25-.586t.58-.238q.349 0 .586.24q.238.238.238.584q0 .33-.24.58q-.238.25-.584.25m0-8q-.33 0-.58-.25q-.25-.248-.25-.58q0-.349.25-.586t.58-.238q.349 0 .586.24q.238.238.238.584q0 .33-.24.58q-.238.25-.584.25m3 12q-.33 0-.58-.25q-.25-.248-.25-.58q0-.349.25-.586t.58-.238q.349 0 .586.24q.238.238.238.584q0 .33-.24.58q-.238.25-.584.25m0-8q-.33 0-.58-.25q-.25-.248-.25-.58q0-.349.25-.586t.58-.238q.349 0 .586.24q.238.238.238.584q0 .33-.24.58q-.238.25-.584.25m3 4q-.33 0-.58-.25q-.25-.248-.25-.58q0-.349.25-.586t.58-.238q.349 0 .586.24q.238.238.238.584q0 .33-.24.58q-.238.25-.584.25m0-8q-.33 0-.58-.25q-.25-.248-.25-.58q0-.349.25-.586t.58-.238q.349 0 .586.24q.238.238.238.584q0 .33-.24.58q-.238.25-.584.25m3 12q-.33 0-.58-.25q-.25-.248-.25-.58q0-.349.25-.586t.58-.238q.349 0 .586.24q.238.238.238.584q0 .33-.24.58q-.238.25-.584.25m0-8q-.33 0-.58-.25q-.25-.248-.25-.58q0-.349.25-.586t.58-.238q.349 0 .586.24q.238.238.238.584q0 .33-.24.58q-.238.25-.584.25m3 4q-.33 0-.58-.25q-.25-.248-.25-.58q0-.349.25-.586t.58-.238q.349 0 .586.24q.238.238.238.584q0 .33-.24.58q-.238.25-.584.25m0-8q-.33 0-.58-.25q-.25-.248-.25-.58q0-.349.25-.586t.58-.238q.349 0 .586.24q.238.238.238.584q0 .33-.24.58q-.238.25-.584.25"/></svg>