<svg xmlns="http://www.w3.org/2000/svg" version="1.1" viewBox="0 0 512 512" fill="currentColor"><path fill="currentColor" d="M5.4 10H3.104q.061-.312.195-.605t.34-.574l3.869-5.15q.213-.286.56-.378q.347-.091.67.086l.72.35q.275.14.408.375q.134.234.134.521v3.388l3.1-.801q.385-.104.72.09q.334.196.468.575l1.702 5.111l4.423 4.424q.347.346.467.748q.12.402.12.84q0 .752-.49 1.304t-1.233.633h-.635L8.504 11.24q-.648-.598-1.446-.919T5.4 10m8.75 11q-.558 0-1.07-.198q-.51-.198-.932-.583l-8.125-7.375q-.417-.367-.65-.847q-.233-.48-.3-.997H5.4q.671 0 1.305.238q.633.239 1.116.722L17.248 21z"/></svg>