<svg xmlns="http://www.w3.org/2000/svg" version="1.1" viewBox="0 0 512 512" fill="currentColor"><path fill="currentColor" d="M5.308 19.577q-.65 0-1.114-.464q-.463-.463-.463-1.114q0-.65.463-1.113q.463-.463 1.114-.463h13.384q.65 0 1.114.464q.463.463.463 1.114q0 .65-.463 1.113q-.463.463-1.114.463zm0-12q-.65 0-1.114-.464Q3.731 6.65 3.731 6q0-.65.463-1.113q.463-.463 1.114-.463h13.384q.65 0 1.114.464q.463.463.463 1.114q0 .65-.463 1.113q-.463.463-1.114.463zm0 6q-.65 0-1.114-.464q-.463-.463-.463-1.114q0-.65.463-1.113q.463-.463 1.114-.463h13.384q.65 0 1.114.464q.463.463.463 1.114q0 .65-.463 1.113q-.463.463-1.114.463zm.772-6.77q.345 0 .575-.232q.23-.234.23-.578q0-.345-.234-.575q-.233-.23-.577-.23q-.345 0-.575.234q-.23.233-.23.577q0 .345.233.575q.234.23.578.23m0 6q.345 0 .575-.233q.23-.234.23-.578q0-.345-.234-.575q-.233-.23-.577-.23q-.345 0-.575.234q-.23.233-.23.577q0 .345.233.575q.234.23.578.23m0 6q.345 0 .575-.233q.23-.234.23-.578q0-.345-.234-.575q-.233-.23-.577-.23q-.345 0-.575.234q-.23.233-.23.577q0 .345.233.575q.234.23.578.23"/></svg>