<svg xmlns="http://www.w3.org/2000/svg" version="1.1" viewBox="0 0 512 512" fill="currentColor"><path fill="currentColor" d="m12 18.83l2.767-2.767q.146-.146.35-.155q.204-.01.37.155q.165.166.165.36t-.165.36l-2.922 2.92q-.13.132-.267.185q-.136.052-.298.052t-.298-.052q-.137-.053-.267-.184l-2.922-2.921q-.146-.146-.155-.35q-.01-.204.155-.37q.166-.165.36-.165t.36.165zm0-13.638L9.233 7.96q-.146.146-.35.155q-.204.01-.37-.155q-.165-.166-.165-.36t.165-.36l2.922-2.92q.13-.132.267-.184q.136-.053.298-.053t.298.053q.137.052.267.183l2.922 2.921q.146.147.155.35q.01.204-.155.37q-.166.165-.36.165t-.36-.165z"/></svg>