<svg xmlns="http://www.w3.org/2000/svg" version="1.1" viewBox="0 0 512 512" fill="currentColor"><path fill="currentColor" d="m12 16.208l-2.746 2.746q-.14.14-.344.15q-.204.01-.364-.15t-.16-.354q0-.194.16-.354l2.889-2.888q.13-.131.267-.184q.136-.053.298-.053t.298.053q.137.053.267.184l2.889 2.888q.14.14.15.344q.01.204-.15.364t-.354.16q-.194 0-.354-.16zm0-8.416l2.746-2.746q.14-.14.344-.15q.204-.01.364.15t.16.354q0 .194-.16.354l-2.889 2.888q-.13.131-.267.184q-.136.053-.298.053t-.298-.053q-.137-.053-.267-.184L8.546 5.754q-.14-.14-.15-.344q-.01-.204.15-.364t.354-.16q.194 0 .354.16z"/></svg>