<svg xmlns="http://www.w3.org/2000/svg" version="1.1" viewBox="0 0 512 512" fill="currentColor"><path fill="currentColor" d="M9.462 10.5H5.038q-.44 0-.739-.299Q4 9.9 4 9.46V5.039q0-.44.299-.739q.3-.299.74-.299h4.423q.44 0 .739.299q.299.3.299.74v4.423q0 .44-.299.739q-.3.299-.74.299Zm0 9.5H5.038q-.44 0-.739-.299q-.299-.3-.299-.74v-4.423q0-.44.299-.739q.3-.299.74-.299h4.423q.44 0 .739.299q.299.3.299.74v4.423q0 .44-.299.739q-.3.299-.74.299Zm9.5-9.5h-4.424q-.44 0-.739-.299q-.299-.3-.299-.74V5.039q0-.44.299-.739q.3-.299.74-.299h4.423q.44 0 .739.299q.299.3.299.74v4.423q0 .44-.299.739q-.3.299-.74.299Zm0 9.5h-4.424q-.44 0-.739-.299q-.299-.3-.299-.74v-4.423q0-.44.299-.739q.3-.299.74-.299h4.423q.44 0 .739.299q.299.3.299.74v4.423q0 .44-.299.739q-.3.299-.74.299Z"/></svg>