<svg xmlns="http://www.w3.org/2000/svg" version="1.1" viewBox="0 0 512 512" fill="currentColor"><path fill="currentColor" d="M4.975 14.385q-.194 0-.335-.144q-.14-.144-.14-.357t.144-.356q.143-.143.356-.143h14.025q.194 0 .335.144q.14.143.14.356t-.144.356q-.144.144-.356.144zm0 3.769q-.194 0-.335-.144q-.14-.144-.14-.357t.144-.356q.143-.143.356-.143h14.025q.194 0 .335.144q.14.144.14.357q0 .212-.144.356q-.144.143-.356.143zm0-7.539q-.194 0-.335-.144q-.14-.143-.14-.356t.144-.356q.143-.144.356-.144h14.025q.194 0 .335.144q.14.144.14.357t-.144.356q-.144.143-.356.143zm0-3.769q-.194 0-.335-.144q-.14-.144-.14-.357q0-.212.144-.356q.143-.143.356-.143h14.025q.194 0 .335.144q.14.144.14.357t-.144.356q-.144.143-.356.143z"/></svg>