<svg xmlns="http://www.w3.org/2000/svg" version="1.1" viewBox="0 0 512 512" fill="currentColor"><path fill="currentColor" d="M4 18.77v-1h16v1zM4 6.23v-1h16v1zM5.615 15q-.69 0-1.152-.462Q4 14.075 4 13.385v-2.77q0-.69.463-1.152Q4.925 9 5.615 9h12.77q.69 0 1.152.463q.463.462.463 1.152v2.77q0 .69-.462 1.153q-.463.462-1.153.462zm0-1h12.77q.23 0 .423-.192q.192-.193.192-.423v-2.77q0-.23-.192-.423q-.193-.192-.423-.192H5.615q-.23 0-.423.192q-.192.193-.192.423v2.77q0 .23.192.423q.193.192.423.192M5 10v4z"/></svg>