<svg xmlns="http://www.w3.org/2000/svg" version="1.1" viewBox="0 0 512 512" fill="currentColor"><path fill="currentColor" d="M5 20q-.425 0-.712-.288T4 19v-2h4v2q0 .425-.288.713T7 20zm-1-4v-4h4v4zm0-5V5q0-.425.288-.712T5 4h2q.425 0 .713.288T8 5v6zm7 9q-.425 0-.712-.288T10 19v-6h4v6q0 .425-.288.713T13 20zm-1-8V8h4v4zm0-5V5q0-.425.288-.712T11 4h2q.425 0 .713.288T14 5v2zm7 13q-.425 0-.712-.288T16 19v-1h4v1q0 .425-.288.713T19 20zm-1-3v-4h4v4zm0-5V5q0-.425.288-.712T17 4h2q.425 0 .713.288T20 5v7z"/></svg>