<svg xmlns="http://www.w3.org/2000/svg" version="1.1" viewBox="0 0 512 512" fill="currentColor"><path fill="currentColor" d="M7 17V7q0-.425.288-.712T8 6q.425 0 .713.288T9 7v10q0 .425-.288.713T8 18q-.425 0-.712-.288T7 17m4 4V3q0-.425.288-.712T12 2q.425 0 .713.288T13 3v18q0 .425-.288.713T12 22q-.425 0-.712-.288T11 21m-8-8v-2q0-.425.288-.712T4 10q.425 0 .713.288T5 11v2q0 .425-.288.713T4 14q-.425 0-.712-.288T3 13m12 4V7q0-.425.288-.712T16 6q.425 0 .713.288T17 7v10q0 .425-.288.713T16 18q-.425 0-.712-.288T15 17m4-4v-2q0-.425.288-.712T20 10q.425 0 .713.288T21 11v2q0 .425-.288.713T20 14q-.425 0-.712-.288T19 13"/></svg>