<svg xmlns="http://www.w3.org/2000/svg" version="1.1" viewBox="0 0 512 512" fill="currentColor"><path fill="currentColor" d="m12 16.175l3.9-3.875q.275-.275.688-.288t.712.288q.275.275.275.7t-.275.7l-4.6 4.6q-.15.15-.325.213t-.375.062q-.2 0-.375-.062T11.3 18.3l-4.6-4.6q-.275-.275-.288-.687T6.7 12.3q.275-.275.7-.275t.7.275zm0-6L15.9 6.3q.275-.275.688-.287t.712.287q.275.275.275.7t-.275.7l-4.6 4.6q-.15.15-.325.213t-.375.062q-.2 0-.375-.062T11.3 12.3L6.7 7.7q-.275-.275-.288-.687T6.7 6.3q.275-.275.7-.275t.7.275z"/></svg>