<svg xmlns="http://www.w3.org/2000/svg" version="1.1" viewBox="0 0 512 512" fill="currentColor"><path fill="currentColor" d="M12 13q-1.25 0-2.125-.875T9 10q0-1.25.875-2.125T12 7q1.25 0 2.125.875T15 10q0 1.25-.875 2.125T12 13M6 23v-7.725q-.95-1.05-1.475-2.4T4 10q0-3.35 2.325-5.675T12 2q3.35 0 5.675 2.325T20 10q0 1.525-.525 2.875T18 15.275V23l-6-2zm6-7q2.5 0 4.25-1.75T18 10q0-2.5-1.75-4.25T12 4Q9.5 4 7.75 5.75T6 10q0 2.5 1.75 4.25T12 16m-4 4.025L12 19l4 1.025v-3.1q-.875.5-1.888.788T12 18q-1.1 0-2.113-.288T8 16.926zm4-1.55"/></svg>