<svg xmlns="http://www.w3.org/2000/svg" version="1.1" viewBox="0 0 512 512" fill="currentColor"><path fill="currentColor" d="M1 19V5h22v14zm5-2h12V7H6zm7.25-4.25q-.325 0-.537-.213T12.5 12q0-.325.213-.537t.537-.213q.325 0 .538.213T14 12q0 .325-.213.538t-.537.212m-5 0q-.325 0-.537-.213T7.5 12q0-.325.213-.537t.537-.213q.325 0 .538.213T9 12q0 .325-.213.538t-.537.212m7.5 0q-.325 0-.537-.213T15 12q0-.325.213-.537t.537-.213q.325 0 .538.213T16.5 12q0 .325-.213.538t-.537.212m-5 0q-.325 0-.537-.213T10 12q0-.325.213-.537t.537-.213q.325 0 .538.213T11.5 12q0 .325-.213.538t-.537.212"/></svg>