<svg xmlns="http://www.w3.org/2000/svg" version="1.1" viewBox="0 0 512 512" fill="currentColor"><path fill="currentColor" d="M5 19q-.425 0-.712-.288T4 18q0-.425.288-.712T5 17h8q.425 0 .713.288T14 18q0 .425-.288.713T13 19zm0-4q-.425 0-.712-.288T4 14q0-.425.288-.712T5 13h14q.425 0 .713.288T20 14q0 .425-.288.713T19 15zm0-4q-.425 0-.712-.288T4 10q0-.425.288-.712T5 9h14q.425 0 .713.288T20 10q0 .425-.288.713T19 11zm0-4q-.425 0-.712-.288T4 6q0-.425.288-.712T5 5h14q.425 0 .713.288T20 6q0 .425-.288.713T19 7z"/></svg>