<svg xmlns="http://www.w3.org/2000/svg" version="1.1" viewBox="0 0 512 512" fill="currentColor"><path fill="currentColor" d="M11 18q-.425 0-.712-.288T10 17q0-.425.288-.712T11 16h4q.425 0 .713.288T16 17q0 .425-.288.713T15 18zm-4.95-2.85L14.5 6.7q.3-.3.7-.3t.7.3q.3.3.3.712t-.3.713L6.75 17.3q-.3.3-.7.3t-.7-.3l-4.275-4.275q-.3-.3-.287-.712T1.1 11.6q.3-.3.713-.3t.712.3zM15 14q-.425 0-.712-.288T14 13q0-.425.288-.712T15 12h4q.425 0 .713.288T20 13q0 .425-.288.713T19 14zm4-4q-.425 0-.712-.288T18 9q0-.425.288-.712T19 8h4q.425 0 .713.288T24 9q0 .425-.288.713T23 10z"/></svg>