<svg xmlns="http://www.w3.org/2000/svg" version="1.1" viewBox="0 0 512 512" fill="currentColor"><path fill="currentColor" d="M10.5 12.5q.425 0 .713-.288t.287-.712q0-.425-.288-.712T10.5 10.5q-.425 0-.712.288T9.5 11.5q0 .425.288.713t.712.287m3 0q.425 0 .713-.288t.287-.712q0-.425-.288-.712T13.5 10.5q-.425 0-.712.288t-.288.712q0 .425.288.713t.712.287m-6 0q.425 0 .713-.288T8.5 11.5q0-.425-.288-.712T7.5 10.5q-.425 0-.712.288T6.5 11.5q0 .425.288.713t.712.287m9 0q.425 0 .713-.288t.287-.712q0-.425-.288-.712T16.5 10.5q-.425 0-.712.288t-.288.712q0 .425.288.713t.712.287M4 21v-2H2V4h20v15h-2v2h-1l-.65-2H5.675L5 21zm0-4h16V6H4zm8-5.5"/></svg>