<svg xmlns="http://www.w3.org/2000/svg" version="1.1" viewBox="0 0 512 512" fill="currentColor"><path fill="currentColor" fill-rule="evenodd" d="M5.5 4.625a1.125 1.125 0 1 0 0-2.25a1.125 1.125 0 0 0 0 2.25m4 0a1.125 1.125 0 1 0 0-2.25a1.125 1.125 0 0 0 0 2.25M10.625 7.5a1.125 1.125 0 1 1-2.25 0a1.125 1.125 0 0 1 2.25 0M5.5 8.625a1.125 1.125 0 1 0 0-2.25a1.125 1.125 0 0 0 0 2.25m5.125 2.875a1.125 1.125 0 1 1-2.25 0a1.125 1.125 0 0 1 2.25 0M5.5 12.625a1.125 1.125 0 1 0 0-2.25a1.125 1.125 0 0 0 0 2.25" clip-rule="evenodd"/></svg>