<svg xmlns="http://www.w3.org/2000/svg" version="1.1" viewBox="0 0 512 512" fill="currentColor"><path fill="currentColor" fill-rule="evenodd" d="M5 1.5a.5.5 0 0 0-1 0V7c0 .017 0 .033.002.05a2.5 2.5 0 0 0 0 4.9A.506.506 0 0 0 4 12v1.5a.5.5 0 0 0 1 0V12c0-.017 0-.033-.002-.05a2.5 2.5 0 0 0 0-4.9A.507.507 0 0 0 5 7zm6 0a.5.5 0 0 0-1 0V3c0 .017 0 .033.002.05a2.5 2.5 0 0 0 0 4.9A.507.507 0 0 0 10 8v5.5a.5.5 0 0 0 1 0V8c0-.017 0-.033-.002-.05a2.5 2.5 0 0 0 0-4.9A.507.507 0 0 0 11 3zM4.5 8a1.5 1.5 0 1 0 0 3a1.5 1.5 0 0 0 0-3M9 5.5a1.5 1.5 0 1 1 3 0a1.5 1.5 0 0 1-3 0" clip-rule="evenodd"/></svg>