<svg xmlns="http://www.w3.org/2000/svg" version="1.1" viewBox="0 0 512 512" fill="currentColor"><path fill="currentColor" fill-rule="evenodd" d="M4.5 2a2.5 2.5 0 1 0 0 5a2.5 2.5 0 0 0 0-5M3 4.5a1.5 1.5 0 1 1 3 0a1.5 1.5 0 0 1-3 0M10.5 2a2.5 2.5 0 1 0 0 5a2.5 2.5 0 0 0 0-5M9 4.5a1.5 1.5 0 1 1 3 0a1.5 1.5 0 0 1-3 0m-7 6a2.5 2.5 0 1 1 5 0a2.5 2.5 0 0 1-5 0M4.5 9a1.5 1.5 0 1 0 0 3a1.5 1.5 0 0 0 0-3m6-1a2.5 2.5 0 1 0 0 5a2.5 2.5 0 0 0 0-5M9 10.5a1.5 1.5 0 1 1 3 0a1.5 1.5 0 0 1-3 0" clip-rule="evenodd"/></svg>