<svg xmlns="http://www.w3.org/2000/svg" version="1.1" viewBox="0 0 512 512" fill="currentColor"><path fill="currentColor" d="M872 144H152c-4.4 0-8 3.6-8 8v56c0 4.4 3.6 8 8 8h720c4.4 0 8-3.6 8-8v-56c0-4.4-3.6-8-8-8M208 310h-56c-4.4 0-8 3.6-8 8v56c0 4.4 3.6 8 8 8h56c4.4 0 8-3.6 8-8v-56c0-4.4-3.6-8-8-8m0 498h-56c-4.4 0-8 3.6-8 8v56c0 4.4 3.6 8 8 8h56c4.4 0 8-3.6 8-8v-56c0-4.4-3.6-8-8-8m0-332h-56c-4.4 0-8 3.6-8 8v56c0 4.4 3.6 8 8 8h56c4.4 0 8-3.6 8-8v-56c0-4.4-3.6-8-8-8m0 166h-56c-4.4 0-8 3.6-8 8v56c0 4.4 3.6 8 8 8h56c4.4 0 8-3.6 8-8v-56c0-4.4-3.6-8-8-8m166-166h-56c-4.4 0-8 3.6-8 8v56c0 4.4 3.6 8 8 8h56c4.4 0 8-3.6 8-8v-56c0-4.4-3.6-8-8-8m0 332h-56c-4.4 0-8 3.6-8 8v56c0 4.4 3.6 8 8 8h56c4.4 0 8-3.6 8-8v-56c0-4.4-3.6-8-8-8m332 0h-56c-4.4 0-8 3.6-8 8v56c0 4.4 3.6 8 8 8h56c4.4 0 8-3.6 8-8v-56c0-4.4-3.6-8-8-8m0-332h-56c-4.4 0-8 3.6-8 8v56c0 4.4 3.6 8 8 8h56c4.4 0 8-3.6 8-8v-56c0-4.4-3.6-8-8-8m166 0h-56c-4.4 0-8 3.6-8 8v56c0 4.4 3.6 8 8 8h56c4.4 0 8-3.6 8-8v-56c0-4.4-3.6-8-8-8m-332 0h-56c-4.4 0-8 3.6-8 8v56c0 4.4 3.6 8 8 8h56c4.4 0 8-3.6 8-8v-56c0-4.4-3.6-8-8-8m332 332h-56c-4.4 0-8 3.6-8 8v56c0 4.4 3.6 8 8 8h56c4.4 0 8-3.6 8-8v-56c0-4.4-3.6-8-8-8m-332 0h-56c-4.4 0-8 3.6-8 8v56c0 4.4 3.6 8 8 8h56c4.4 0 8-3.6 8-8v-56c0-4.4-3.6-8-8-8m332-498h-56c-4.4 0-8 3.6-8 8v56c0 4.4 3.6 8 8 8h56c4.4 0 8-3.6 8-8v-56c0-4.4-3.6-8-8-8m-332 0h-56c-4.4 0-8 3.6-8 8v56c0 4.4 3.6 8 8 8h56c4.4 0 8-3.6 8-8v-56c0-4.4-3.6-8-8-8m332 332h-56c-4.4 0-8 3.6-8 8v56c0 4.4 3.6 8 8 8h56c4.4 0 8-3.6 8-8v-56c0-4.4-3.6-8-8-8m-332 0h-56c-4.4 0-8 3.6-8 8v56c0 4.4 3.6 8 8 8h56c4.4 0 8-3.6 8-8v-56c0-4.4-3.6-8-8-8"/></svg>