<svg xmlns="http://www.w3.org/2000/svg" version="1.1" viewBox="0 0 512 512" fill="currentColor"><path fill="currentColor" d="M0 0v142.844h142.844V0zm285.719 0v142.844h142.844V0zm285.719 0v142.844h142.844V0zm285.719 0v142.844h142.844V0zM.001 285.719v142.844h142.844V285.719zm857.156 0v142.844h142.844V285.719zM.001 571.438v142.844h142.844V571.438zm857.156 0v142.844h142.844V571.438zM.001 857.157v142.844h142.844V857.157zm285.719 0v142.844h142.844V857.157zm285.719 0v142.844h142.844V857.157zm285.719 0v142.844h142.844V857.157z"/></svg>