<svg xmlns="http://www.w3.org/2000/svg" version="1.1" viewBox="0 0 512 512" fill="currentColor"><g fill="currentColor" stroke-width="1.5"><path d="M10.963 6.073a1.35 1.35 0 0 1 2.074 0l4.22 5.062a1.35 1.35 0 0 1 0 1.729l-4.22 5.063a1.35 1.35 0 0 1-2.074 0l-4.22-5.063a1.35 1.35 0 0 1 .001-1.729z"/><path fill-rule="evenodd" d="M1.25 12a.75.75 0 0 1 .75-.75h2a.75.75 0 0 1 0 1.5H2a.75.75 0 0 1-.75-.75m18 0a.75.75 0 0 1 .75-.75h2a.75.75 0 0 1 0 1.5h-2a.75.75 0 0 1-.75-.75" clip-rule="evenodd"/></g></svg>