<svg xmlns="http://www.w3.org/2000/svg" version="1.1" viewBox="0 0 512 512" fill="currentColor"><path fill="currentColor" d="M20.5 3c-.6 0-1 .4-1 1v16c0 .6.4 1 1 1s1-.4 1-1V4c0-.6-.4-1-1-1m-4 8c-.6 0-1 .4-1 1s.4 1 1 1s1-.4 1-1s-.4-1-1-1m-4 0c-.6 0-1 .4-1 1s.4 1 1 1s1-.4 1-1s-.4-1-1-1m-4 0c-.6 0-1 .4-1 1s.4 1 1 1s1-.4 1-1s-.4-1-1-1m-4 0c-.6 0-1 .4-1 1s.4 1 1 1s1-.4 1-1s-.4-1-1-1m12 8c-.6 0-1 .4-1 1s.4 1 1 1s1-.4 1-1s-.4-1-1-1m-4 0c-.6 0-1 .4-1 1s.4 1 1 1s1-.4 1-1s-.4-1-1-1m-4 0c-.6 0-1 .4-1 1s.4 1 1 1s1-.4 1-1s-.4-1-1-1m-4 0c-.6 0-1 .4-1 1s.4 1 1 1s1-.4 1-1s-.4-1-1-1m0-4c-.6 0-1 .4-1 1s.4 1 1 1s1-.4 1-1s-.4-1-1-1m0-8c-.6 0-1 .4-1 1s.4 1 1 1s1-.4 1-1s-.4-1-1-1m8 8c-.6 0-1 .4-1 1s.4 1 1 1s1-.4 1-1s-.4-1-1-1m0-8c-.6 0-1 .4-1 1s.4 1 1 1s1-.4 1-1s-.4-1-1-1m4-4c-.6 0-1 .4-1 1s.4 1 1 1s1-.4 1-1s-.4-1-1-1m-4 0c-.6 0-1 .4-1 1s.4 1 1 1s1-.4 1-1s-.4-1-1-1m-4 0c-.6 0-1 .4-1 1s.4 1 1 1s1-.4 1-1s-.4-1-1-1m-4 0c-.6 0-1 .4-1 1s.4 1 1 1s1-.4 1-1s-.4-1-1-1"/></svg>