<svg xmlns="http://www.w3.org/2000/svg" version="1.1" viewBox="0 0 512 512" fill="currentColor"><path fill="none" stroke="currentColor" stroke-linecap="round" stroke-linejoin="round" d="M18.034 24h8.79a5.25 5.25 0 0 1 5.242 5.25h0a5.25 5.25 0 0 1-5.243 5.25h-8.789V15.717h.031l-2.13-2.217h10.888a5.25 5.25 0 0 1 5.242 5.25h0A5.25 5.25 0 0 1 26.824 24z"/><path fill="none" stroke="currentColor" stroke-linecap="round" stroke-linejoin="round" d="M40.5 5.5h-33a2 2 0 0 0-2 2v33a2 2 0 0 0 2 2h33a2 2 0 0 0 2-2v-33a2 2 0 0 0-2-2"/></svg>