<svg xmlns="http://www.w3.org/2000/svg" version="1.1" viewBox="0 0 512 512" fill="currentColor"><path fill="none" stroke="currentColor" stroke-linecap="round" stroke-linejoin="round" d="M25.138 24h-2.276a3.51 3.51 0 0 0-3.5 3.5h0a3.51 3.51 0 0 0 3.5 3.5h2.276a3.51 3.51 0 0 0 3.5-3.5h0a3.51 3.51 0 0 0-3.5-3.5m0 0a3.51 3.51 0 0 0 3.5-3.5h0a3.51 3.51 0 0 0-3.5-3.5h-2.276a3.51 3.51 0 0 0-3.5 3.5h0a3.51 3.51 0 0 0 3.5 3.5"/><path fill="none" stroke="currentColor" stroke-linecap="round" stroke-linejoin="round" d="M38.5 5.5h-4v1a3.5 3.5 0 1 1-7 0v-1h-8v1a3.5 3.5 0 1 1-7 0v-1h-3a4 4 0 0 0-4 4v29a4 4 0 0 0 4 4h29a4 4 0 0 0 4-4v-29a4 4 0 0 0-4-4"/></svg>