<svg xmlns="http://www.w3.org/2000/svg" version="1.1" viewBox="0 0 512 512" fill="currentColor"><path fill="none" stroke="currentColor" stroke-linecap="round" stroke-linejoin="round" d="M40.5 5.5h-33a2 2 0 0 0-2 2v33a2 2 0 0 0 2 2h33a2 2 0 0 0 2-2v-33a2 2 0 0 0-2-2m-25.875 11v15"/><path fill="none" stroke="currentColor" stroke-linecap="round" stroke-linejoin="round" d="M14.625 25.313a3.75 3.75 0 0 1 3.75-3.75h0a3.75 3.75 0 0 1 3.75 3.75V31.5m3.75-15v15m0-6.187a3.75 3.75 0 0 1 3.75-3.75h0a3.75 3.75 0 0 1 3.75 3.75V31.5"/></svg>