<svg xmlns="http://www.w3.org/2000/svg" version="1.1" viewBox="0 0 512 512" fill="currentColor"><path fill="none" stroke="currentColor" stroke-linecap="round" stroke-linejoin="round" d="M5.5 22.972a8.736 8.736 0 0 0 8.736 8.736h2.056v2.056a8.736 8.736 0 0 0 8.736 8.736h0V22.972Z"/><path fill="none" stroke="currentColor" stroke-linecap="round" stroke-linejoin="round" d="M14.236 14.236a8.736 8.736 0 0 0 8.736 8.736h2.056v2.056a8.736 8.736 0 0 0 8.736 8.736h0V14.236Z"/><path fill="none" stroke="currentColor" stroke-linecap="round" stroke-linejoin="round" d="M22.972 5.5a8.736 8.736 0 0 0 8.736 8.736h2.056v2.056a8.736 8.736 0 0 0 8.736 8.736h0V5.5Z"/></svg>