<svg xmlns="http://www.w3.org/2000/svg" version="1.1" viewBox="0 0 512 512" fill="currentColor"><path fill="none" stroke="currentColor" stroke-linecap="round" stroke-linejoin="round" d="m24.864 39.114l14.25-14.25a1.222 1.222 0 0 0 0-1.728h0l-14.25-14.25a1.222 1.222 0 0 0-1.728 0h0l-14.25 14.25a1.222 1.222 0 0 0 0 1.728h0l14.25 14.25a1.222 1.222 0 0 0 1.728 0"/><path fill="none" stroke="currentColor" stroke-linecap="round" stroke-linejoin="round" d="m24.864 43.142l14.25-14.25a1.222 1.222 0 0 0 0-1.728h0l-14.25-14.25a1.222 1.222 0 0 0-1.728 0h0l-14.25 14.25a1.222 1.222 0 0 0 0 1.728h0l14.25 14.25a1.222 1.222 0 0 0 1.728 0"/><path fill="none" stroke="currentColor" stroke-linecap="round" stroke-linejoin="round" d="m24.864 35.086l14.25-14.25a1.222 1.222 0 0 0 0-1.728h0l-14.25-14.25a1.222 1.222 0 0 0-1.728 0h0l-14.25 14.25a1.222 1.222 0 0 0 0 1.728h0l14.25 14.25a1.222 1.222 0 0 0 1.728 0"/></svg>