<svg xmlns="http://www.w3.org/2000/svg" version="1.1" viewBox="0 0 512 512" fill="currentColor"><path fill="none" stroke="currentColor" stroke-linecap="round" stroke-linejoin="round" d="M23.145 37.489c-1.639 3.23-4.81 1.603-3.824-.727l4.754-10.283c.84-1.69.84-3.39 0-5.08l-4.562-9.867c-1.008-2.316 1.948-4.419 3.632-1.143l5.09 11.01c.84 1.69.84 3.39 0 5.08z"/><path fill="none" stroke="currentColor" stroke-linecap="round" stroke-linejoin="round" d="M40.5 5.5h-33a2 2 0 0 0-2 2v33a2 2 0 0 0 2 2h33a2 2 0 0 0 2-2v-33a2 2 0 0 0-2-2"/></svg>