<svg xmlns="http://www.w3.org/2000/svg" version="1.1" viewBox="0 0 512 512" fill="currentColor"><g fill="none" fill-rule="evenodd"><path stroke="currentColor" stroke-linecap="round" stroke-linejoin="round" d="M7.5 4.5h6a2 2 0 0 1 2 2v9a2 2 0 0 1-2 2h-6a2 2 0 0 1-2-2v-9a2 2 0 0 1 2-2m-2 5h10"/><g fill="currentColor" transform="translate(5 4)"><circle cx="2.5" cy="7.5" r="1"/><circle cx="4.5" cy="7.5" r="1"/><circle cx="6.5" cy="7.5" r="1"/><circle cx="8.5" cy="7.5" r="1"/><circle cx="2.5" cy="9.5" r="1"/><circle cx="4.5" cy="9.5" r="1"/><circle cx="6.5" cy="9.5" r="1"/><circle cx="8.5" cy="9.5" r="1"/><circle cx="2.5" cy="11.5" r="1"/><circle cx="4.5" cy="11.5" r="1"/><circle cx="6.5" cy="11.5" r="1"/><circle cx="8.5" cy="11.5" r="1"/></g></g></svg>