<svg xmlns="http://www.w3.org/2000/svg" version="1.1" viewBox="0 0 512 512" fill="currentColor"><g fill="none" stroke="currentColor" stroke-linecap="round" stroke-width="1.5"><path stroke-linejoin="round" d="M8.557 2.75H4.682A1.932 1.932 0 0 0 2.75 4.682v3.875a1.942 1.942 0 0 0 1.932 1.942h3.875a1.942 1.942 0 0 0 1.942-1.942V4.682A1.942 1.942 0 0 0 8.557 2.75m10.761 0h-3.875a1.942 1.942 0 0 0-1.942 1.932v3.875a1.943 1.943 0 0 0 1.942 1.942h3.875a1.942 1.942 0 0 0 1.932-1.942V4.682a1.932 1.932 0 0 0-1.932-1.932M8.557 13.5H4.682a1.943 1.943 0 0 0-1.932 1.943v3.875a1.932 1.932 0 0 0 1.932 1.932h3.875a1.942 1.942 0 0 0 1.942-1.932v-3.875a1.942 1.942 0 0 0-1.942-1.942"/><path stroke-miterlimit="10" d="M17.368 13.817v7.116m-3.551-3.55h7.116"/></g></svg>