<svg xmlns="http://www.w3.org/2000/svg" version="1.1" viewBox="0 0 512 512" fill="currentColor"><g fill="none" stroke="currentColor" stroke-width="1.5"><rect width="18.5" height="18.5" x="2.75" y="2.75" rx="6"/><path stroke-linecap="round" stroke-linejoin="round" d="M16.763 10.942v2.116a.53.53 0 0 1-.53.53h-2.645v2.645a.529.529 0 0 1-.53.53h-2.116a.53.53 0 0 1-.53-.53v-2.645H7.768a.529.529 0 0 1-.53-.53v-2.116a.529.529 0 0 1 .53-.53h2.645V7.768a.529.529 0 0 1 .53-.53h2.116a.529.529 0 0 1 .53.53v2.645h2.645a.529.529 0 0 1 .53.53"/></g></svg>