<svg xmlns="http://www.w3.org/2000/svg" version="1.1" viewBox="0 0 512 512" fill="currentColor"><g fill="none" stroke="currentColor" stroke-linecap="round" stroke-linejoin="round" stroke-width="1.5"><path d="M4.484 6.219v12.14a2.89 2.89 0 0 0 2.891 2.891h9.25a2.89 2.89 0 0 0 2.89-2.89V6.218"/><path d="m19.516 6.219l-3.134-3.134a1.157 1.157 0 0 0-.82-.335H8.438a1.156 1.156 0 0 0-.821.335L4.484 6.22zM8.531 9.688l.359.705A2.89 2.89 0 0 0 11.48 12h1.04a2.89 2.89 0 0 0 2.59-1.607l.359-.705"/></g></svg>