<svg xmlns="http://www.w3.org/2000/svg" version="1.1" viewBox="0 0 512 512" fill="currentColor"><path fill="currentColor" d="M128 256v384h1920v128H128v1152H0V128h2048v128zm128 640h128v128H256zm256 0h128v128H512zm256 0h128v128H768zm256 0h128v128h-128zm256 0h128v128h-128zm256 0h128v128h-128zm256 0h128v128h-128zM256 1408h128v128H256zm256 0h128v128H512zm256 0h128v128H768zm256 0h128v128h-128zm256 0h128v128h-128zm256 0h128v128h-128zm256 0h128v128h-128zM256 1152h128v128H256zm256 0h128v128H512zm256 0h128v128H768zm256 0h128v128h-128zm256 0h128v128h-128zm256 0h128v128h-128zm256 0h128v128h-128zM256 1664h128v128H256zm256 0h128v128H512zm256 0h128v128H768zm256 0h128v128h-128zm256 0h128v128h-128z"/></svg>