<svg xmlns="http://www.w3.org/2000/svg" version="1.1" viewBox="0 0 512 512" fill="currentColor"><path fill="currentColor" d="M33 6H3a1 1 0 0 0-1 1v22a1 1 0 0 0 1 1h30a1 1 0 0 0 1-1V7a1 1 0 0 0-1-1m-9.21 15.41a1 1 0 0 1-1.41 0L18 17l-4.38 4.38a1 1 0 0 1-1.41 0a1 1 0 0 1 0-1.42L18 14.2l5.79 5.8a1 1 0 0 1 0 1.41m0-6.2a1 1 0 0 1-1.41 0L18 10.83l-4.38 4.38a1 1 0 0 1-1.41 0a1 1 0 0 1 0-1.42L18 8l5.79 5.79a1 1 0 0 1 0 1.42" class="clr-i-solid clr-i-solid-path-1"/><path fill="none" d="M0 0h36v36H0z"/></svg>