<svg xmlns="http://www.w3.org/2000/svg" version="1.1" viewBox="0 0 512 512" fill="currentColor"><path fill="currentColor" d="M3.054 5.41a.497.497 0 0 1 .02-.072A3.001 3.001 0 0 1 6 3h8c1.43 0 2.625 1 2.927 2.338a.509.509 0 0 1-.38.663a.509.509 0 0 1-.6-.462A2 2 0 0 0 14 4H6a2 2 0 0 0-1.947 1.54a.509.509 0 0 1-.6.462a.509.509 0 0 1-.4-.592M16.5 12a.5.5 0 0 1-.5-.5v-3a.5.5 0 0 1 1 0v3a.5.5 0 0 1-.5.5m-13 4a.5.5 0 0 0 0 1h13a.5.5 0 0 0 0-1zM3 14.5a.5.5 0 0 1 .5-.5h13a.5.5 0 0 1 0 1h-13a.5.5 0 0 1-.5-.5m0-3a.5.5 0 0 0 1 0v-3a.5.5 0 0 0-1 0z"/></svg>