<svg xmlns="http://www.w3.org/2000/svg" version="1.1" viewBox="0 0 512 512" fill="currentColor"><path fill="currentColor" d="M9 4.5a1.5 1.5 0 1 1-3 0a1.5 1.5 0 0 1 3 0m0 6a1.5 1.5 0 1 1-3 0a1.5 1.5 0 0 1 3 0m0 6a1.5 1.5 0 1 1-3 0a1.5 1.5 0 0 1 3 0m6.5-12a1.5 1.5 0 1 1-3 0a1.5 1.5 0 0 1 3 0m0 6a1.5 1.5 0 1 1-3 0a1.5 1.5 0 0 1 3 0m0 6a1.5 1.5 0 1 1-3 0a1.5 1.5 0 0 1 3 0m0 6a1.5 1.5 0 1 1-3 0a1.5 1.5 0 0 1 3 0m6.5-18a1.5 1.5 0 1 1-3 0a1.5 1.5 0 0 1 3 0m0 6a1.5 1.5 0 1 1-3 0a1.5 1.5 0 0 1 3 0m0 6a1.5 1.5 0 1 1-3 0a1.5 1.5 0 0 1 3 0"/></svg>