<svg xmlns="http://www.w3.org/2000/svg" version="1.1" viewBox="0 0 512 512" fill="currentColor"><path fill="currentColor" d="M9 7.5a2.5 2.5 0 1 0 0-5a2.5 2.5 0 0 0 0 5m0 7a2.5 2.5 0 1 0 0-5a2.5 2.5 0 0 0 0 5m0 7a2.5 2.5 0 1 0 0-5a2.5 2.5 0 0 0 0 5m7-14a2.5 2.5 0 1 0 0-5a2.5 2.5 0 0 0 0 5m0 7a2.5 2.5 0 1 0 0-5a2.5 2.5 0 0 0 0 5m0 7a2.5 2.5 0 1 0 0-5a2.5 2.5 0 0 0 0 5m0 7a2.5 2.5 0 1 0 0-5a2.5 2.5 0 0 0 0 5m7-21a2.5 2.5 0 1 0 0-5a2.5 2.5 0 0 0 0 5m0 7a2.5 2.5 0 1 0 0-5a2.5 2.5 0 0 0 0 5m0 7a2.5 2.5 0 1 0 0-5a2.5 2.5 0 0 0 0 5"/></svg>