<svg xmlns="http://www.w3.org/2000/svg" version="1.1" viewBox="0 0 512 512" fill="currentColor"><path fill="currentColor" d="M16 8.5a2.5 2.5 0 1 1-5 0a2.5 2.5 0 0 1 5 0m0 10a2.5 2.5 0 1 1-5 0a2.5 2.5 0 0 1 5 0m0 10a2.5 2.5 0 1 1-5 0a2.5 2.5 0 0 1 5 0m10.5-20a2.5 2.5 0 1 1-5 0a2.5 2.5 0 0 1 5 0m0 10a2.5 2.5 0 1 1-5 0a2.5 2.5 0 0 1 5 0m0 10a2.5 2.5 0 1 1-5 0a2.5 2.5 0 0 1 5 0m0 10a2.5 2.5 0 1 1-5 0a2.5 2.5 0 0 1 5 0M37 8.5a2.5 2.5 0 1 1-5 0a2.5 2.5 0 0 1 5 0m0 10a2.5 2.5 0 1 1-5 0a2.5 2.5 0 0 1 5 0m0 10a2.5 2.5 0 1 1-5 0a2.5 2.5 0 0 1 5 0"/></svg>