<svg xmlns="http://www.w3.org/2000/svg" version="1.1" viewBox="0 0 512 512" fill="currentColor"><path fill="currentColor" d="M12 17.75a1.5 1.5 0 1 1 0 3a1.5 1.5 0 0 1 0-3m0-5a1.5 1.5 0 1 1 0 3a1.5 1.5 0 0 1 0-3m4.996 0a1.5 1.5 0 1 1 0 3a1.5 1.5 0 0 1 0-3m-9.992 0a1.5 1.5 0 1 1 0 3a1.5 1.5 0 0 1 0-3m4.996-5a1.5 1.5 0 1 1 0 3a1.5 1.5 0 0 1 0-3m4.996 0a1.5 1.5 0 1 1 0 3a1.5 1.5 0 0 1 0-3m-9.992 0a1.5 1.5 0 1 1 0 3a1.5 1.5 0 0 1 0-3m4.996-5a1.5 1.5 0 1 1 0 3a1.5 1.5 0 0 1 0-3m4.996 0a1.5 1.5 0 1 1 0 3a1.5 1.5 0 0 1 0-3m-9.992 0a1.5 1.5 0 1 1 0 3a1.5 1.5 0 0 1 0-3"/></svg>