<svg xmlns="http://www.w3.org/2000/svg" version="1.1" viewBox="0 0 512 512" fill="currentColor"><path fill="currentColor" d="M6 5.25a1.25 1.25 0 1 0 0-2.5a1.25 1.25 0 0 0 0 2.5m0 4a1.25 1.25 0 1 0 0-2.5a1.25 1.25 0 0 0 0 2.5M7.25 12a1.25 1.25 0 1 1-2.5 0a1.25 1.25 0 0 1 2.5 0M10 5.25a1.25 1.25 0 1 0 0-2.5a1.25 1.25 0 0 0 0 2.5M11.25 8a1.25 1.25 0 1 1-2.5 0a1.25 1.25 0 0 1 2.5 0M10 13.25a1.25 1.25 0 1 0 0-2.5a1.25 1.25 0 0 0 0 2.5M11.25 16a1.25 1.25 0 1 1-2.5 0a1.25 1.25 0 0 1 2.5 0M14 5.25a1.25 1.25 0 1 0 0-2.5a1.25 1.25 0 0 0 0 2.5M15.25 8a1.25 1.25 0 1 1-2.5 0a1.25 1.25 0 0 1 2.5 0M14 13.25a1.25 1.25 0 1 0 0-2.5a1.25 1.25 0 0 0 0 2.5"/></svg>