<svg xmlns="http://www.w3.org/2000/svg" version="1.1" viewBox="0 0 512 512" fill="currentColor"><path fill="currentColor" d="M7.738 16.445A2.986 2.986 0 0 1 6 17a3 3 0 0 1-2.445-4.738zm5.902-5.358l-2.23 1.152a.75.75 0 0 0-.41.664v2.194a.75.75 0 0 0 .41.664l2.23 1.152a.786.786 0 0 0 .72 0l2.23-1.152a.75.75 0 0 0 .41-.664v-2.194a.75.75 0 0 0-.41-.664l-2.23-1.152a.786.786 0 0 0-.72 0m-5.195 4.651A2.987 2.987 0 0 0 9 14a3 3 0 0 0-4.738-2.445zM13 3a2 2 0 0 0-2 2v2a2 2 0 0 0 2 2h2a2 2 0 0 0 2-2V5a2 2 0 0 0-2-2zm-8.087.674a1.214 1.214 0 0 1 2.174 0l1.78 3.537C9.277 8.03 8.688 9 7.778 9H4.22c-.91 0-1.5-.97-1.087-1.79z"/></svg>