<svg xmlns="http://www.w3.org/2000/svg" version="1.1" viewBox="0 0 512 512" fill="currentColor"><path fill="currentColor" d="M20.245 4.004c.967 0 1.75.784 1.75 1.75V18.25a1.75 1.75 0 0 1-1.75 1.75h-7.247c-.087 0-.172-.007-.256-.019V4.023c.083-.012.169-.019.256-.019zm-9.247-.002a1.8 1.8 0 0 1 .245.017V19.98a1.8 1.8 0 0 1-.245.017H3.75A1.75 1.75 0 0 1 2 18.247V5.752c0-.967.784-1.75 1.75-1.75zM17.625 16.5a.75.75 0 1 0 0 1.5a.75.75 0 0 0 0-1.5m2.5 0a.75.75 0 1 0 0 1.5a.75.75 0 0 0 0-1.5m-5 0a.75.75 0 1 0 0 1.5a.75.75 0 0 0 0-1.5"/></svg>