<svg xmlns="http://www.w3.org/2000/svg" version="1.1" viewBox="0 0 512 512" fill="currentColor"><path fill="currentColor" d="M14 20a2.5 2.5 0 1 1 0 5a2.5 2.5 0 0 1 0-5m8.5 0a2.5 2.5 0 1 1 0 5a2.5 2.5 0 0 1 0-5m-17 0a2.5 2.5 0 1 1 0 5a2.5 2.5 0 0 1 0-5m8.5-8.5a2.5 2.5 0 1 1 0 5a2.5 2.5 0 0 1 0-5m8.5 0a2.5 2.5 0 1 1 0 5a2.5 2.5 0 0 1 0-5m-17 0a2.5 2.5 0 1 1 0 5a2.5 2.5 0 0 1 0-5M14 3a2.5 2.5 0 1 1 0 5a2.5 2.5 0 0 1 0-5m8.5 0a2.5 2.5 0 1 1 0 5a2.5 2.5 0 0 1 0-5m-17 0a2.5 2.5 0 1 1 0 5a2.5 2.5 0 0 1 0-5"/></svg>