<svg xmlns="http://www.w3.org/2000/svg" version="1.1" viewBox="0 0 512 512" fill="currentColor"><path fill="currentColor" d="M3 6.25A3.25 3.25 0 0 1 6.25 3h11.5A3.25 3.25 0 0 1 21 6.25v5.627A3.984 3.984 0 0 0 18.5 11a3.995 3.995 0 0 0-3.25 1.668A3.995 3.995 0 0 0 12 11a3.995 3.995 0 0 0-3.25 1.668A3.995 3.995 0 0 0 5.5 11c-.946 0-1.815.328-2.5.877zM14.5 15a2.5 2.5 0 0 0-5 0v6h5zm1.5 6h2.75A2.25 2.25 0 0 0 21 18.75V15a2.5 2.5 0 0 0-5 0zm-8 0H5.25A2.25 2.25 0 0 1 3 18.75V15a2.5 2.5 0 0 1 5 0z"/></svg>