<svg xmlns="http://www.w3.org/2000/svg" version="1.1" viewBox="0 0 512 512" fill="currentColor"><path fill="currentColor" d="M7.637 6.285a1 1 0 1 0-1.274-1.542A11.978 11.978 0 0 0 2 14c0 3.727 1.7 7.057 4.363 9.257a1 1 0 0 0 1.274-1.543A9.978 9.978 0 0 1 4 14a9.978 9.978 0 0 1 3.637-7.715m14-1.542a1 1 0 1 0-1.274 1.542A9.977 9.977 0 0 1 24 14a9.978 9.978 0 0 1-3.637 7.715a1 1 0 0 0 1.274 1.542A11.978 11.978 0 0 0 26 14c0-3.727-1.7-7.057-4.363-9.257M8.998 13a1 1 0 1 0 0 2h10a1 1 0 1 0 0-2z"/></svg>