<svg xmlns="http://www.w3.org/2000/svg" version="1.1" viewBox="0 0 512 512" fill="currentColor"><path fill="currentColor" d="M12 5.5a.5.5 0 0 0-.5-.5h-3a.5.5 0 0 0 0 1h3a.5.5 0 0 0 .5-.5m5 0a.5.5 0 0 0-.5-.5h-3a.5.5 0 0 0 0 1h3a.5.5 0 0 0 .5-.5m-10 0a.5.5 0 0 0-.5-.5h-3a.5.5 0 0 0 0 1h3a.5.5 0 0 0 .5-.5m5 3a.5.5 0 0 0-.5-.5h-3a.5.5 0 0 0 0 1h3a.5.5 0 0 0 .5-.5m5 0a.5.5 0 0 0-.5-.5h-3a.5.5 0 0 0 0 1h3a.5.5 0 0 0 .5-.5m-10 0a.5.5 0 0 0-.5-.5h-3a.5.5 0 0 0 0 1h3a.5.5 0 0 0 .5-.5m5 3a.5.5 0 0 0-.5-.5h-3a.5.5 0 0 0 0 1h3a.5.5 0 0 0 .5-.5m5 0a.5.5 0 0 0-.5-.5h-3a.5.5 0 0 0 0 1h3a.5.5 0 0 0 .5-.5m-10 0a.5.5 0 0 0-.5-.5h-3a.5.5 0 0 0 0 1h3a.5.5 0 0 0 .5-.5m5 3a.5.5 0 0 0-.5-.5h-3a.5.5 0 0 0 0 1h3a.5.5 0 0 0 .5-.5m5 0a.5.5 0 0 0-.5-.5h-3a.5.5 0 0 0 0 1h3a.5.5 0 0 0 .5-.5m-10 0a.5.5 0 0 0-.5-.5h-3a.5.5 0 0 0 0 1h3a.5.5 0 0 0 .5-.5"/></svg>