<svg xmlns="http://www.w3.org/2000/svg" version="1.1" viewBox="0 0 512 512" fill="currentColor"><path fill="currentColor" d="M79 14H21c-3.85 0-7 3.15-7 7v58c0 3.85 3.15 7 7 7h58c3.85 0 7-3.15 7-7V21c0-3.85-3.15-7-7-7M35.435 61.5c-6.456 0-11.69-5.233-11.69-11.689s5.234-11.69 11.69-11.69c6.456 0 11.689 5.233 11.689 11.69c0 6.456-5.233 11.689-11.689 11.689m29.633 0c-6.456 0-11.69-5.233-11.69-11.689s5.233-11.69 11.69-11.69c6.456 0 11.689 5.233 11.689 11.69c.001 6.456-5.233 11.689-11.689 11.689"/></svg>