<svg xmlns="http://www.w3.org/2000/svg" version="1.1" viewBox="0 0 512 512" fill="currentColor"><path fill="currentColor" d="M5 2a3 3 0 1 0 3 3a3 3 0 0 0-3-3m0 4a1 1 0 1 1 1-1a1 1 0 0 1-1 1m7-4a3 3 0 1 0 3 3a3 3 0 0 0-3-3m0 4a1 1 0 1 1 1-1a1 1 0 0 1-1 1m7 2a3 3 0 1 0-3-3a3 3 0 0 0 3 3m0-4a1 1 0 1 1-1 1a1 1 0 0 1 1-1M5 9a3 3 0 1 0 3 3a3 3 0 0 0-3-3m0 4a1 1 0 1 1 1-1a1 1 0 0 1-1 1m7-4a3 3 0 1 0 3 3a3 3 0 0 0-3-3m0 4a1 1 0 1 1 1-1a1 1 0 0 1-1 1m7-4a3 3 0 1 0 3 3a3 3 0 0 0-3-3m0 4a1 1 0 1 1 1-1a1 1 0 0 1-1 1M5 16a3 3 0 1 0 3 3a3 3 0 0 0-3-3m0 4a1 1 0 1 1 1-1a1 1 0 0 1-1 1m7-4a3 3 0 1 0 3 3a3 3 0 0 0-3-3m0 4a1 1 0 1 1 1-1a1 1 0 0 1-1 1m7-4a3 3 0 1 0 3 3a3 3 0 0 0-3-3m0 4a1 1 0 1 1 1-1a1 1 0 0 1-1 1"/></svg>