<svg xmlns="http://www.w3.org/2000/svg" version="1.1" viewBox="0 0 512 512" fill="currentColor"><path fill="currentColor" fill-rule="evenodd" d="M0 2.5A2.5 2.5 0 0 1 2.5 0h9A2.5 2.5 0 0 1 14 2.5v9a2.5 2.5 0 0 1-2.5 2.5H7a1 1 0 1 1 0-2h4.5a.5.5 0 0 0 .5-.5v-9a.5.5 0 0 0-.5-.5h-9a.5.5 0 0 0-.5.5V7a1 1 0 0 1-2 0zm4.462 11.191A.5.5 0 0 1 4 14H.5a.5.5 0 0 1-.5-.5V10a.5.5 0 0 1 .854-.354l1.042 1.043l4.397-4.396a1 1 0 0 1 1.414 1.414l-4.396 4.397l1.043 1.042a.5.5 0 0 1 .108.545" clip-rule="evenodd"/></svg>