<svg xmlns="http://www.w3.org/2000/svg" version="1.1" viewBox="0 0 512 512" fill="currentColor"><path fill="currentColor" fill-rule="evenodd" d="M3.5 1.75a.25.25 0 0 1 .25-.25h6.5a.25.25 0 0 1 .25.25v10.5a.25.25 0 0 1-.25.25H3.802a.753.753 0 0 1-.179-.114a.53.53 0 0 1-.123-.147zM3.75 0A1.75 1.75 0 0 0 2 1.75v10.5c0 .592.361 1.032.65 1.278c.156.133.328.243.498.322c.154.073.37.15.602.15h6.5A1.75 1.75 0 0 0 12 12.25V1.75A1.75 1.75 0 0 0 10.25 0zM6.5 9.75a.75.75 0 0 0 0 1.5h1a.75.75 0 0 0 0-1.5z" clip-rule="evenodd"/></svg>