<svg xmlns="http://www.w3.org/2000/svg" version="1.1" viewBox="0 0 512 512" fill="currentColor"><path fill="currentColor" fill-rule="evenodd" d="M80 123.996A4.002 4.002 0 0 1 75.996 128H52.004A4.002 4.002 0 0 1 48 123.996v-23.992A4.002 4.002 0 0 1 52.004 96h23.992A4.002 4.002 0 0 1 80 100.004zm32 80a4.002 4.002 0 0 1-4.004 4.004H84.004A4.002 4.002 0 0 1 80 203.996v-23.992A4.002 4.002 0 0 1 84.004 176h23.992a4.002 4.002 0 0 1 4.004 4.004zm96-64a4.002 4.002 0 0 1-4.004 4.004h-23.992a4.002 4.002 0 0 1-4.004-4.004v-23.992a4.002 4.002 0 0 1 4.004-4.004h23.992a4.002 4.002 0 0 1 4.004 4.004zm-96 16a4.002 4.002 0 0 0 4.004 4.004h23.992a4.002 4.002 0 0 0 4.004-4.004v-23.992a4.002 4.002 0 0 0-4.004-4.004h-23.992a4.002 4.002 0 0 0-4.004 4.004zm32-80A4.002 4.002 0 0 0 148.004 80h23.992A4.002 4.002 0 0 0 176 75.996V52.004A4.002 4.002 0 0 0 171.996 48h-23.992A4.002 4.002 0 0 0 144 52.004z"/></svg>